<svg width="448" height="512" viewBox="0 0 448 512" fill="none" xmlns="http://www.w3.org/2000/svg">
<g clip-path="url(#clip0_1_2)">
<path d="M159.3 5.39999C167.1 -1.90001 179.2 -1.80001 187 5.49999C214.6 31.4 240.5 59.3 264.7 89.5C275.7 75.1 288.2 59.4 301.7 46.6C309.6 39.2 321.8 39.2 329.7 46.7C364.3 79.7 393.6 123.3 414.2 164.7C434.5 205.5 448 247.2 448 276.6C448 404.2 348.2 512 224 512C98.4 512 0 404.1 0 276.5C0 238.1 17.8 191.2 45.4 144.8C73.3 97.7 112.7 48.6 159.3 5.39999ZM225.7 416C251 416 273.4 409 294.5 395C336.6 365.6 347.9 306.8 322.6 260.6C318.1 251.6 306.6 251 300.1 258.6L274.9 287.9C268.3 295.5 256.4 295.3 250.2 287.4C233.7 266.4 204.2 228.9 187.4 207.6C181.1 199.6 169.1 199.5 162.7 207.5C128.9 250 111.9 276.8 111.9 306.9C112 375.4 162.6 416 225.7 416Z" fill="#F08D32"/>
<path d="M167.24 167.424L156.872 157.104C156.488 156.72 156.296 156.288 156.296 155.808C156.296 155.328 156.488 154.896 156.872 154.512C157.224 154.16 157.64 153.984 158.12 153.984C158.6 153.984 159.032 154.16 159.416 154.512L169.832 164.88C170.184 165.264 170.36 165.696 170.36 166.176C170.36 166.624 170.184 167.04 169.832 167.424C169.448 167.808 169.016 168 168.536 168C168.056 168 167.624 167.808 167.24 167.424ZM153.128 168.48C150.344 168.48 147.784 168 145.448 167.04C143.112 166.08 141.08 164.736 139.352 163.008C137.656 161.28 136.328 159.248 135.368 156.912C134.44 154.576 133.976 152.016 133.976 149.232C133.976 146.48 134.44 143.936 135.368 141.6C136.328 139.264 137.656 137.232 139.352 135.504C141.08 133.776 143.112 132.432 145.448 131.472C147.784 130.512 150.344 130.032 153.128 130.032C155.88 130.032 158.424 130.512 160.76 131.472C163.096 132.432 165.128 133.776 166.856 135.504C168.584 137.232 169.912 139.264 170.84 141.6C171.8 143.936 172.28 146.48 172.28 149.232C172.28 152.016 171.8 154.576 170.84 156.912C169.912 159.248 168.584 161.28 166.856 163.008C165.128 164.736 163.096 166.08 160.76 167.04C158.424 168 155.88 168.48 153.128 168.48ZM153.128 164.928C155.336 164.928 157.384 164.544 159.272 163.776C161.16 162.976 162.792 161.872 164.168 160.464C165.576 159.024 166.664 157.36 167.432 155.472C168.2 153.552 168.584 151.472 168.584 149.232C168.584 147.024 168.2 144.976 167.432 143.088C166.664 141.168 165.576 139.504 164.168 138.096C162.792 136.656 161.16 135.552 159.272 134.784C157.384 133.984 155.336 133.584 153.128 133.584C150.888 133.584 148.824 133.984 146.936 134.784C145.048 135.552 143.4 136.656 141.992 138.096C140.616 139.504 139.544 141.168 138.776 143.088C138.008 144.976 137.624 147.024 137.624 149.232C137.624 151.472 138.008 153.552 138.776 155.472C139.544 157.36 140.616 159.024 141.992 160.464C143.4 161.872 145.048 162.976 146.936 163.776C148.824 164.544 150.888 164.928 153.128 164.928ZM190.947 168.288C188.675 168.288 186.643 167.824 184.851 166.896C183.059 165.936 181.635 164.544 180.579 162.72C179.555 160.896 179.043 158.672 179.043 156.048V143.568C179.043 143.056 179.219 142.624 179.571 142.272C179.923 141.92 180.355 141.744 180.867 141.744C181.411 141.744 181.859 141.92 182.211 142.272C182.563 142.624 182.739 143.056 182.739 143.568V156.048C182.739 158.032 183.107 159.664 183.843 160.944C184.611 162.224 185.635 163.184 186.915 163.824C188.227 164.464 189.699 164.784 191.331 164.784C192.899 164.784 194.307 164.48 195.555 163.872C196.835 163.264 197.843 162.432 198.579 161.376C199.315 160.32 199.683 159.12 199.683 157.776H202.323C202.227 159.792 201.667 161.6 200.643 163.2C199.651 164.768 198.307 166.016 196.611 166.944C194.915 167.84 193.027 168.288 190.947 168.288ZM201.507 168C200.963 168 200.515 167.84 200.163 167.52C199.843 167.168 199.683 166.704 199.683 166.128V143.568C199.683 143.024 199.843 142.592 200.163 142.272C200.515 141.92 200.963 141.744 201.507 141.744C202.051 141.744 202.499 141.92 202.851 142.272C203.203 142.592 203.379 143.024 203.379 143.568V166.128C203.379 166.704 203.203 167.168 202.851 167.52C202.499 167.84 202.051 168 201.507 168ZM214.648 168C214.072 168 213.608 167.84 213.256 167.52C212.936 167.168 212.776 166.704 212.776 166.128V143.616C212.776 143.04 212.936 142.592 213.256 142.272C213.608 141.92 214.072 141.744 214.648 141.744C215.192 141.744 215.624 141.92 215.944 142.272C216.296 142.592 216.472 143.04 216.472 143.616V166.128C216.472 166.704 216.296 167.168 215.944 167.52C215.624 167.84 215.192 168 214.648 168ZM214.6 136.752C213.896 136.752 213.288 136.496 212.776 135.984C212.264 135.472 212.008 134.848 212.008 134.112C212.008 133.312 212.264 132.688 212.776 132.24C213.32 131.76 213.944 131.52 214.648 131.52C215.32 131.52 215.912 131.76 216.424 132.24C216.968 132.688 217.24 133.312 217.24 134.112C217.24 134.848 216.984 135.472 216.472 135.984C215.96 136.496 215.336 136.752 214.6 136.752ZM228.043 166.752L225.019 165.12L242.875 142.416L245.371 144.528L228.043 166.752ZM226.363 168C225.243 168 224.683 167.44 224.683 166.32C224.683 165.2 225.243 164.64 226.363 164.64H244.171C245.291 164.64 245.851 165.2 245.851 166.32C245.851 167.44 245.291 168 244.171 168H226.363ZM226.171 145.104C225.051 145.104 224.491 144.544 224.491 143.424C224.491 142.304 225.051 141.744 226.171 141.744H243.979C245.099 141.744 245.659 142.304 245.659 143.424C245.659 144.544 245.099 145.104 243.979 145.104H226.171ZM254.386 166.752L251.362 165.12L269.218 142.416L271.714 144.528L254.386 166.752ZM252.706 168C251.586 168 251.026 167.44 251.026 166.32C251.026 165.2 251.586 164.64 252.706 164.64H270.514C271.634 164.64 272.194 165.2 272.194 166.32C272.194 167.44 271.634 168 270.514 168H252.706ZM252.514 145.104C251.394 145.104 250.834 144.544 250.834 143.424C250.834 142.304 251.394 141.744 252.514 141.744H270.322C271.442 141.744 272.002 142.304 272.002 143.424C272.002 144.544 271.442 145.104 270.322 145.104H252.514ZM284.234 168C282.954 168 281.802 167.648 280.778 166.944C279.786 166.24 279.002 165.264 278.426 164.016C277.882 162.768 277.61 161.328 277.61 159.696V132.336C277.61 131.792 277.77 131.36 278.09 131.04C278.442 130.688 278.89 130.512 279.434 130.512C279.978 130.512 280.41 130.688 280.73 131.04C281.082 131.36 281.258 131.792 281.258 132.336V159.696C281.258 161.072 281.53 162.192 282.074 163.056C282.65 163.92 283.37 164.352 284.234 164.352H285.434C285.914 164.352 286.298 164.528 286.586 164.88C286.874 165.2 287.018 165.632 287.018 166.176C287.018 166.72 286.81 167.168 286.394 167.52C286.01 167.84 285.498 168 284.858 168H284.234ZM302.568 168.24C299.976 168.24 297.672 167.68 295.656 166.56C293.672 165.408 292.104 163.824 290.952 161.808C289.832 159.792 289.272 157.488 289.272 154.896C289.272 152.272 289.8 149.968 290.856 147.984C291.944 145.968 293.432 144.384 295.32 143.232C297.208 142.08 299.384 141.504 301.848 141.504C304.28 141.504 306.392 142.064 308.184 143.184C310.008 144.272 311.416 145.792 312.408 147.744C313.4 149.696 313.896 151.92 313.896 154.416C313.896 154.928 313.736 155.344 313.416 155.664C313.096 155.952 312.68 156.096 312.168 156.096H291.768V153.024H312.552L310.488 154.512C310.52 152.656 310.184 150.992 309.48 149.52C308.776 148.048 307.768 146.896 306.456 146.064C305.176 145.232 303.64 144.816 301.848 144.816C300.024 144.816 298.424 145.248 297.048 146.112C295.672 146.976 294.6 148.176 293.832 149.712C293.096 151.216 292.728 152.944 292.728 154.896C292.728 156.848 293.144 158.576 293.976 160.08C294.84 161.584 296.008 162.768 297.48 163.632C298.952 164.496 300.648 164.928 302.568 164.928C303.72 164.928 304.872 164.736 306.024 164.352C307.208 163.936 308.152 163.424 308.856 162.816C309.208 162.528 309.608 162.384 310.056 162.384C310.504 162.352 310.888 162.464 311.208 162.72C311.624 163.104 311.832 163.52 311.832 163.968C311.864 164.416 311.688 164.8 311.304 165.12C310.248 166.016 308.904 166.768 307.272 167.376C305.64 167.952 304.072 168.24 302.568 168.24Z" fill="#FFF2F2"/>
</g>
<defs>
<clipPath id="clip0_1_2">
<rect width="448" height="512" fill="white"/>
</clipPath>
</defs>
</svg>
